#!OML:ASF E:\emotionWalksFemale\Project 1\Capture day 1\Session 1\Female1.ASF
:FULLY-SPECIFIED
:DEGREES
272
root 10.7003 15.4512 19.508 365.637 173.618 -357.941
lowerback 10.0363 1.36854 0.270305
upperback -5.39049 1.98042 -0.112177
thorax -11.4688 0.963083 -0.67392
lowerneck -6.35389 1.10627 -2.80708
upperneck 3.98089 1.47637 5.71426
head 2.3235 0.889704 2.40533
rclavicle 2.21334e-014 -3.18055e-015
rhumerus -47.4814 22.8618 -84.6019
rradius 62.2917
rwrist 7.54859
rhand 0.465716 -50.7442
rfingers 7.12502
rthumb 26.0364 -78.9801
lclavicle 2.21334e-014 -3.18055e-015
lhumerus -27.3148 -8.26873 81.2977
lradius 31.4666
lwrist -27.6672
lhand 12.4349 -37.2799
lfingers 7.12502
lthumb 37.4319 -11.3283
rfemur -10.2226 11.0969 23.6262
rtibia 21.4301
rfoot -16.0592 -23.4297
rtoes -8.15187
lfemur -15.331 -16.4061 -16.1658
ltibia 29.3633
lfoot -17.4304 21.2964
ltoes -57.2331
273
root 10.674 15.4592 19.5111 365.206 172.8 -358.177
lowerback 9.72896 1.31136 0.798513
upperback -4.85347 1.93241 -0.230309
thorax -10.659 0.892823 -1.06558
lowerneck -6.24299 1.46062 -2.8074
upperneck 3.26506 1.97998 5.64801
head 2.04204 1.13076 2.38424
rclavicle -1.75055e-014 5.36719e-015
rhumerus -46.5607 22.0703 -85.4633
rradius 60.1071
rwrist 9.08185
rhand -0.19122 -50.8462
rfingers 7.12502
rthumb 25.4072 -79.1732
lclavicle -1.75055e-014 5.36719e-015
lhumerus -27.215 -7.16487 81.5889
lradius 31.2584
lwrist -29.2165
lhand 10.4436 -37.6935
lfingers 7.12502
lthumb 35.547 -11.267
rfemur -10.3919 11.6041 23.4361
rtibia 22.5893
rfoot -16.4933 -23.301
rtoes -7.92141
lfemur -14.071 -16.5895 -16.7781
ltibia 28.3638
lfoot -17.7741 21.9831
ltoes -57.0446
274
root 10.6437 15.4572 19.5254 365.655 171.902 -358.417
lowerback 8.94239 1.27099 1.39964
upperback -4.64646 1.9209 -0.491663
thorax -9.93222 0.845231 -1.65164
lowerneck -6.37932 1.75685 -2.62423
upperneck 2.62631 2.39876 5.55748
head 1.83901 1.33851 2.32433
rclavicle -3.5365e-014 -9.93923e-016
rhumerus -45.4713 20.9612 -86.3378
rradius 57.3837
rwrist 10.931
rhand -1.17397 -51.2334
rfingers 7.12502
rthumb 24.4654 -79.6909
lclavicle -3.5365e-014 -9.93923e-016
lhumerus -26.9964 -6.05481 81.697
lradius 30.8519
lwrist -30.3552
lhand 8.24714 -38.1496
lfingers 7.12502
lthumb 33.462 -11.248
rfemur -12.0411 12.3765 22.9683
rtibia 24.3526
rfoot -16.6828 -23.3248
rtoes -5.67822
lfemur -14.206 -16.4405 -17.0837
ltibia 27.848
lfoot -17.8351 22.403
ltoes -56.5871
275
root 10.6309 15.4442 19.5329 366.025 170.56 -359.457
lowerback 8.05464 1.34715 1.08907
upperback -4.45568 1.9188 -1.15814
thorax -9.18366 0.854197 -2.15287
lowerneck -6.68559 2.06053 -2.21329
upperneck 2.15085 2.81029 5.66124
head 1.72326 1.55874 2.29452
rclavicle 3.91388e-014 3.97569e-015
rhumerus -44.3693 19.5057 -87.5104
rradius 54.576
rwrist 12.3321
rhand -2.33079 -51.807
rfingers 7.12502
rthumb 23.3561 -80.4099
lclavicle 3.91388e-014 3.97569e-015
lhumerus -26.947 -4.97393 81.3023
lradius 30.4556
lwrist -31.2618
lhand 5.42085 -38.5642
lfingers 7.12502
lthumb 30.7713 -11.1194
rfemur -13.9821 13.3444 21.5632
rtibia 26.4056
rfoot -16.9667 -23.2696
rtoes -3.88969
lfemur -14.5355 -15.8939 -18.2655
ltibia 27.7157
lfoot -17.6818 22.911
ltoes -56.1388
276
root 10.6161 15.4229 19.5457 365.984 169.387 -360.054
lowerback 7.88835 1.69529 -0.42251
upperback -4.25307 2.24927 -0.49495
thorax -8.93476 1.12793 -0.640095
lowerneck -6.76085 2.26109 -2.6375
upperneck 1.62813 3.14106 4.84964
head 1.55513 1.68867 2.10398
rclavicle -3.54209e-014 -8.54774e-015
rhumerus -43.7791 18.7157 -86.737
rradius 52.1626
rwrist 12.8443
rhand -3.34248 -52.9667
rfingers 7.12502
rthumb 22.3852 -81.6897
lclavicle -3.54209e-014 -8.54774e-015
lhumerus -27.3805 -2.96822 82.7237
lradius 30.167
lwrist -32.6767
lhand 2.84108 -38.8055
lfingers 7.12502
lthumb 28.3087 -10.925
rfemur -15.2916 13.8955 20.7414
rtibia 28.233
rfoot -17.3873 -22.8134
rtoes -3.69973
lfemur -14.5512 -15.1901 -19.0592
ltibia 27.8455
lfoot -17.8155 23.1228
ltoes -55.8423
277
root 10.6028 15.4032 19.5554 365.679 168.515 -360.385
lowerback 10.1316 1.81247 -0.793469
upperback -5.23806 2.37955 -0.361352
thorax -11.3851 1.21772 -0.423878
lowerneck -6.35512 2.56226 -2.44025
upperneck 2.11769 3.4981 4.39534
head 1.63395 1.84647 1.9303
rclavicle -6.85283e-015 3.08116e-015
rhumerus -45.2547 17.08 -87.1332
rradius 49.2314
rwrist 14.6529
rhand -4.44328 -53.3578
rfingers 7.12502
rthumb 21.3282 -82.2041
lclavicle -6.85283e-015 3.08116e-015
lhumerus -29.9809 -2.25914 83.4415
lradius 30.3752
lwrist -32.712
lhand 0.250711 -38.6
lfingers 7.12502
lthumb 25.8305 -10.334
rfemur -15.9111 14.3253 20.3036
rtibia 29.5571
rfoot -17.7844 -22.4171
rtoes -3.87628
lfemur -14.27 -14.7311 -19.5947
ltibia 27.9764
lfoot -18.0873 23.3114
ltoes -55.5405
278
root 10.5924 15.3915 19.5556 365.179 168.24 -360.486
lowerback 10.4886 1.71512 -0.674574
upperback -5.03923 2.26495 -0.185459
thorax -11.3781 1.1544 -0.283921
lowerneck -6.15829 2.86248 -2.38103
upperneck 1.76173 3.91038 4.03992
head 1.47408 2.0399 1.80341
rclavicle 4.29359e-014 -9.44227e-016
rhumerus -44.8224 14.981 -86.6231
rradius 45.5494
rwrist 17.5538
rhand -5.39811 -52.9467
rfingers 7.12502
rthumb 20.4109 -81.8939
lclavicle 4.29359e-014 -9.44227e-016
lhumerus -30.8102 -1.79642 84.2913
lradius 30.3011
lwrist -30.9517
lhand -1.97885 -37.6692
lfingers 7.12502
lthumb 23.6937 -9.10957
rfemur -15.6739 14.7054 20.2595
rtibia 30.1016
rfoot -17.8444 -22.6149
rtoes -4.48692
lfemur -13.7074 -14.5606 -19.8937
ltibia 28.0381
lfoot -17.9502 23.6293
ltoes -56.0407
279
root 10.5844 15.391 19.5614 364.807 167.603 -360.378
lowerback 10.8115 1.75657 -0.347616
upperback -4.8966 2.37192 -0.0499442
thorax -11.4043 1.18151 -0.349657
lowerneck -6.1428 3.10994 -2.34763
upperneck 1.72768 4.24159 3.8772
head 1.45172 2.20058 1.75252
rclavicle -2.17421e-014 -7.95139e-016
rhumerus -44.3989 12.1454 -85.7565
rradius 42.3491
rwrist 20.8392
rhand -4.74758 -53.7571
rfingers 7.12502
rthumb 21.0359 -82.6362
lclavicle -2.17421e-014 -7.95139e-016
lhumerus -31.536 -1.56509 85.0802
lradius 30.3143
lwrist -28.9873
lhand -1.9545 -36.276
lfingers 7.12502
lthumb 23.717 -7.7194
rfemur -15.2823 15.3168 20.3831
rtibia 29.9654
rfoot -17.3877 -22.7797
rtoes -5.76819
lfemur -13.0489 -13.9492 -19.9554
ltibia 27.8211
lfoot -17.8327 23.6678
ltoes -56.2271
280
root 10.5786 15.4034 19.5651 364.432 166.91 -360.259
lowerback 10.8748 1.85635 0.146819
upperback -4.65685 2.57075 -0.0353135
thorax -11.1505 1.23731 -0.647343
lowerneck -6.29578 3.30302 -2.10334
upperneck 1.95428 4.48065 3.64315
head 1.55229 2.31697 1.65009
rclavicle 2.9122e-014 2.98177e-015
rhumerus -44.0175 9.12579 -85.0009
rradius 39.0762
rwrist 22.7255
rhand -6.82091 -54.2806
rfingers 7.12502
rthumb 19.0431 -83.3683
lclavicle 2.9122e-014 2.98177e-015
lhumerus -32.0248 -1.19482 85.5106
lradius 30.216
lwrist -28.4724
lhand -0.852395 -35.5647
lfingers 7.12502
lthumb 24.7737 -7.14916
rfemur -14.5644 15.9016 20.5168
rtibia 29.2675
rfoot -16.9922 -22.6485
rtoes -5.56058
lfemur -12.1629 -13.4272 -19.9854
ltibia 27.2169
lfoot -17.8371 23.5407
ltoes -55.8261
281
root 10.5789 15.4285 19.5589 364.029 166.469 -360.174
lowerback 12.0014 2.00183 0.167237
upperback -5.13621 2.82715 0.262123
thorax -12.389 1.36347 -0.44897
lowerneck -6.2821 3.38935 -2.05356
upperneck 3.16645 4.55832 3.30066
head 1.94871 2.34201 1.56027
rclavicle 2.14874e-014 4.37326e-015
rhumerus -44.9873 5.80614 -83.3305
rradius 35.961
rwrist 25.7622
rhand -7.7202 -54.8128
rfingers 7.12502
rthumb 18.178 -83.9834
lclavicle 2.14874e-014 4.37326e-015
lhumerus -33.7001 -0.796737 86.32
lradius 30.0296
lwrist -28.9159
lhand 0.25891 -35.7896
lfingers 7.12502
lthumb 25.8383 -7.52466
rfemur -13.5063 16.4129 20.6692
rtibia 28.1956
rfoot -16.7937 -22.6157
rtoes -4.63472
lfemur -11.0448 -13.3432 -20.0489
ltibia 26.2305
lfoot -17.7015 23.7152
ltoes -55.5833
282
root 10.5823 15.4639 19.5399 363.602 166.332 -360.253
lowerback 11.3026 1.96599 0.536996
upperback -4.67062 2.81351 0.265519
thorax -11.4185 1.33415 -0.608241
lowerneck -6.57601 3.51169 -1.96795
upperneck 3.53677 4.71505 3.16937
head 2.12343 2.41894 1.52539
rclavicle -2.81032e-014 -1.07344e-014
rhumerus -44.4762 1.98397 -81.6
rradius 33.0334
rwrist 28.5631
rhand -7.58556 -55.8484
rfingers 7.12502
rthumb 18.3076 -85.0069
lclavicle -2.81032e-014 -1.07344e-014
lhumerus -33.7961 -0.837726 86.901
lradius 29.9147
lwrist -29.0469
lhand 2.96968 -35.7361
lfingers 7.12502
lthumb 28.4316 -7.87606
rfemur -12.2717 16.6983 20.6866
rtibia 26.9228
rfoot -16.5592 -22.8068
rtoes -5.27376
lfemur -9.7585 -13.6791 -20.3124
ltibia 24.9248
lfoot -17.4744 24.0823
ltoes -55.6115
283
root 10.585 15.496 19.5124 363.155 166.481 -360.531
lowerback 11.6573 1.89121 0.453283
upperback -4.9082 2.72889 0.391127
thorax -11.9131 1.30381 -0.427492
lowerneck -6.65181 3.59594 -1.9716
upperneck 4.54392 4.81502 3.03064
head 2.47169 2.46375 1.51109
rclavicle 1.52319e-014 -6.75868e-015
rhumerus -45.3195 -1.46742 -79.5978
rradius 30.4224
rwrist 30.0194
rhand -8.64724 -56.4718
rfingers 7.12502
rthumb 17.286 -85.723
lclavicle 1.52319e-014 -6.75868e-015
lhumerus -35.2096 -1.22887 87.9576
lradius 30.2678
lwrist -28.8996
lhand 7.02671 -35.1881
lfingers 7.12502
lthumb 32.3011 -8.04304
rfemur -10.9727 16.838 20.4897
rtibia 25.6066
rfoot -16.2206 -23.0356
rtoes -6.62526
lfemur -8.43409 -14.2919 -20.7992
ltibia 23.4628
lfoot -17.2025 24.4693
ltoes -55.9391
284
root 10.5856 15.5193 19.4899 362.853 167.023 -360.777
lowerback 11.5765 1.73916 0.548234
upperback -4.97376 2.55272 0.458614
thorax -11.9387 1.21825 -0.368129
lowerneck -6.90282 3.57665 -1.86172
upperneck 5.484 4.78379 2.81903
head 2.84325 2.44492 1.45275
rclavicle -2.3792e-014 -9.54166e-015
rhumerus -46.069 -5.09197 -77.1965
rradius 28.3472
rwrist 32.4363
rhand -7.35195 -57.6459
rfingers 7.12502
rthumb 18.5323 -86.7831
lclavicle -2.3792e-014 -9.54166e-015
lhumerus -36.2582 -2.15431 89.2252
lradius 30.6054
lwrist -28.7751
lhand 10.5848 -34.6407
lfingers 7.12502
lthumb 35.6808 -8.24635
rfemur -9.81801 16.9169 20.3044
rtibia 24.3584
rfoot -15.8176 -23.4593
rtoes -7.37497
lfemur -7.3804 -15.2381 -21.1724
ltibia 22.0323
lfoot -16.7643 24.7879
ltoes -56.2195
